<svg xmlns="http://www.w3.org/2000/svg" fill-rule="evenodd" stroke-linejoin="round" stroke-miterlimit="2" clip-rule="evenodd" viewBox="0 0 32 32"><path d="M22.684 25.923a5.503 5.503 0 0 0-3.889-6.736 5.502 5.502 0 0 0-6.736 3.889 5.502 5.502 0 0 0 3.889 6.736 5.503 5.503 0 0 0 6.736-3.889Zm-1.932-.518a3.502 3.502 0 0 1-4.287 2.475 3.501 3.501 0 0 1 1.812-6.762 3.502 3.502 0 0 1 2.475 4.287Zm-8.09-12.677L28.741 8.42A1 1 0 0 1 30 9.369v.035a6.234 6.234 0 0 1-4.621 6.128L8.976 19.927l-.052.014a5.502 5.502 0 0 1-6.736-3.889 5.503 5.503 0 0 1 3.889-6.736 5.504 5.504 0 0 1 6.585 3.412Zm-6.067-1.48a3.5 3.5 0 1 1 1.811 6.76 3.5 3.5 0 0 1-1.811-6.76Zm9.002-1.377.871-3.25A6.234 6.234 0 0 1 22.596 2h.035a1 1 0 0 1 .949 1.259l-1.291 4.819-6.692 1.793Z"/></svg>